/* XPM */
static char *_033f6ebb1be4062983f09958119d6ebNt3eXdNbiCHnGwh1[] = {
/* columns rows colors chars-per-pixel */
"32 32 83 1 ",
"  c None",
". c black",
"X c #010101",
"o c #020202",
"O c gray1",
"+ c #040404",
"@ c gray2",
"# c #060606",
"$ c #070707",
"% c gray3",
"& c #090909",
"* c gray4",
"= c #0B0B0B",
"- c #0C0C0C",
"; c gray5",
": c #0E0E0E",
"> c gray6",
", c #101010",
"< c #111111",
"1 c gray7",
"2 c #131313",
"3 c gray8",
"4 c #151515",
"5 c #161616",
"6 c gray9",
"7 c #181818",
"8 c #191919",
"9 c gray10",
"0 c #1B1B1B",
"q c gray11",
"w c #1D1D1D",
"e c #1E1E1E",
"r c gray12",
"t c #202020",
"y c gray13",
"u c #222222",
"i c #232323",
"p c gray14",
"a c #252525",
"s c gray15",
"d c #272727",
"f c #282828",
"g c gray16",
"h c #2A2A2A",
"j c gray17",
"k c #2C2C2C",
"l c #2D2D2D",
"z c gray18",
"x c #2F2F2F",
"c c gray19",
"v c #313131",
"b c #323232",
"n c gray20",
"m c #343434",
"M c #353535",
"N c gray21",
"B c #373737",
"V c gray22",
"C c #393939",
"Z c #3A3A3A",
"A c gray23",
"S c #3C3C3C",
"D c gray24",
"F c #3E3E3E",
"G c #3F3F3F",
"H c gray25",
"J c #414141",
"K c gray26",
"L c #434343",
"P c gray27",
"I c #464646",
"U c gray28",
"Y c #484848",
"T c #494949",
"R c gray29",
"E c #4B4B4B",
"W c #4C4C4C",
"Q c gray30",
"! c #4E4E4E",
"~ c gray31",
"^ c gray32",
"/ c #535353",
"( c gray33",
/* pixels */
"              dyyy              ",
"          xfffddyyee06          ",
"        xbxxxfxdddyy0061        ",
"       bNbbbbxxfddyye0661       ",
"     bNNVVVNbbxxfddyee0611;     ",
"    bVVDDDDVNbxxxfdyee06611=    ",
"    NDHHHPHHVVbbxxddye0661;;    ",
"   NVDPTTTTPHVNbxffddee0611;=   ",
"  bVDHP!!!!PHDVbxxfdyy00611;=@  ",
"  NNDPT!^(!TPDVNbxfdde00611;=@  ",
" bbNDHT!^(!THHNbxxffyye0611;==@ ",
" xbNDHPT!!TPHDNbxffdye0061;;=@O ",
" xbbVDHPPTTHDDNbxxddyee0611;@@O ",
" xxbNVDHHHHDVNbbxfdyye0661;;=@O ",
"ffbxNNNVDDVVNNbxxfdyye0611;;@OOO",
"dfxxbbNNVNNNbbxffddye0666;;=@OOO",
"ddfxxbxbbbbbxxxffdyye0661;==@OOO",
"yddfffxxxxxxfxffdyye00611;==@OOO",
" ydffffxfxfxffdyyyee0661;;=@OOO ",
" yyyddddddfffddyye00661;;;=OOOO ",
" eeyydyddddydyyeee06611;==@OOOO ",
" 0eeeeyyyyyyyeee000611;==@@OOOO ",
"  000eeeeeee000066611;;=@@OOOO  ",
"  6600000e000066611;;;==@OOOOO  ",
"   666066660666111;;==@@@OOOO   ",
"    1116666111111;;===@OOOOO    ",
"    ;11111111;1;;;==@@OOOOOO    ",
"     ;;;;1;;;;====@@OOOOOOO     ",
"       ;=======@@@@OOOOOO       ",
"        @==@@@@OOOOOOOOO        ",
"          @@@OOOOOOOOO          ",
"              OOOO              "
};
