/* XPM */
static char *result[] = {
/* columns rows colors chars-per-pixel */
"32 32 57 1 ",
"  c #E50000",
". c #E60000",
"X c #E70000",
"o c #E60002",
"O c #E60003",
"+ c #E60005",
"@ c #E60006",
"# c #E60007",
"$ c #E60008",
"% c #E60009",
"& c #E70009",
"* c #E6000A",
"= c #E7000A",
"- c #E6000F",
"; c #E7000F",
": c #E60010",
"> c #E70010",
", c #E60011",
"< c #E60012",
"1 c #E60013",
"2 c #E60014",
"3 c #E60015",
"4 c #E60016",
"5 c #E6001A",
"6 c #E6001B",
"7 c #E6001C",
"8 c #E6011C",
"9 c #E6021C",
"0 c #E7021C",
"q c #E6031C",
"w c #E7031C",
"e c #E6041C",
"r c #E60A1E",
"t c #E60B1E",
"y c #E70B1E",
"u c #E70C1F",
"i c #E70D1F",
"p c #E70E20",
"a c #EC8A8D",
"s c #EC8C8E",
"d c #EC8F92",
"f c #EB9092",
"g c #EB9193",
"h c #EC9093",
"j c #EC9193",
"k c #EC9194",
"l c #EC9294",
"z c #ED9294",
"x c #EC9295",
"c c #EDA6A8",
"v c #EDA8AA",
"b c #EDAFB1",
"n c #EEAFB1",
"m c #EDB0B2",
"M c #EEB0B2",
"N c #EEB1B2",
"B c None",
/* pixels */
"BBBBBvaBBBBBBBBBBBBBBBBBBscBBBBB",
"BBBBM..kBBBBBBBBBBBBBBBBx .bBBBB",
"BBBM.:t.jBBBBBBBBBBBBBBk p-.nBBB",
"BBN.,-@8.hBBBBBBBBBBBBl e+>:.nBB",
"Bm.:>o@&6.hBBBBBBBBBBl 6%@O;:.BB",
"v.-:o@@+&6.jBBBBBBBBl 6%+@@O>-.B",
"B.u#+@@@+%6.hBBBBBBk 0%+@@@@+i.B",
"BB.8*+@@@+%7.jBBBBl q%+@@@+%9.BB",
"BBB.6%+@@@+%6.dBBz 6%+@@@+%6.BBB",
"BBBBX6%+@@@+%5.BB 6%+@@@+%6.BBBB",
"BBBBB.6%+@@@+%2..2%+@@@+%6.BBBBB",
"BBBBBB.6*+@@@+$34#+@@@+%9.BBBBBB",
"BBBBBBB.6%+@@@@++@@@@+%6.BBBBBBB",
"BBBBBBBB.5$+@@@@@@@@+%5XBBBBBBBB",
"BBBBBBBBB.1$+@@@@@@@#2BBBBBBBBBB",
"BBBBBBBBBB.3#@@@@@@+3.BBBBBBBBBB",
"BBBBBBBBBB.3#@@@@@@+3.BBBBBBBBBB",
"BBBBBBBBg 2#@@@@@@@@#2.fBBBBBBBB",
"BBBBBBBl 6$+@@@@@@@@+%5.hBBBBBBB",
"BBBBBBl w%+@@@@##@@@@+%6.jBBBBBB",
"BBBBBk 8%+@@@+#33#+@@@+$7.hBBBBB",
"BBBBl 6%+@@@+$2. 2$+@@@+%6.jBBBB",
"BBBl 6%+@@@+%5.BB.5%+@@@+=6.hBBB",
"BBl w%+@@@+%8.BBBB.6*+@@@+&6.hBB",
"Bx 9%+@@@+%6.BBBBBB.7%+@@@+&8.BB",
"s u@@@@@+%6.BBBBBBBB.6%+@@@@@r.B",
"B.->o@@+%6.BBBBBBBBBB.6%+@@O-,.B",
"BBX:>o@%9.BBBBBBBBBBBB.6*+O-<.BB",
"BBB.:>@7.BBBBBBBBBBBBBB.7#-,.BBB",
"BBBB.-y.BBBBBBBBBBBBBBBB.t:.BBBB",
"BBBBBXBBBBBBBBBBBBBBBBBBB..BBBBB",
"BBBBBBBBBBBBBBBBBBBBBBBBBBBBBBBB"
};
