/* XPM */
static char *ac98166bba794eb79f0240542d485bcdbMDqmzgEp8kqpX6y[] = {
/* columns rows colors chars-per-pixel */
"32 32 8 1 ",
"  c None",
". c #FFFA00",
"X c #FEFB00",
"o c #FFFB00",
"O c #FEFA01",
"+ c #FFFA01",
"@ c #FEFB01",
"# c #FFFB01",
/* pixels */
"                                ",
"                                ",
"                                ",
"                                ",
"                                ",
"                                ",
"                                ",
"                                ",
"         oooooooooooooo         ",
"         ooooooooooooo#         ",
"         oooooooooooooo         ",
"         oooooooooooooo         ",
"         oooooooooo#ooo         ",
"         ooooooooo#oooo         ",
"         ooooooo#oooooo         ",
"         oooooooooooooo         ",
"         ooooo#oooooooo         ",
"         oo#oooooooooo#         ",
"         ooooo##ooooooo         ",
"         oooooooo#oo#oo         ",
"         oooooooooooooo         ",
"         oooooooo#o##oo         ",
"         ooooooo##oooo#         ",
"                                ",
"                                ",
"                                ",
"                                ",
"                                ",
"                                ",
"                                ",
"                                ",
"                                "
};
