/* XPM */
static char *result[] = {
/* columns rows colors chars-per-pixel */
"32 32 135 2 ",
"   c DimGray",
".  c #6A6A6A",
"X  c gray42",
"o  c #6C6C6C",
"O  c gray43",
"+  c #6F6F6F",
"@  c gray44",
"#  c gray45",
"$  c #747474",
"%  c #777777",
"&  c gray47",
"*  c #797979",
"=  c gray48",
"-  c #7E7E7E",
";  c gray50",
":  c #808080",
">  c #818181",
",  c #838383",
"<  c #848484",
"1  c gray52",
"2  c #868686",
"3  c gray53",
"4  c #888888",
"5  c #898989",
"6  c gray54",
"7  c #8B8B8B",
"8  c gray55",
"9  c #8D8D8D",
"0  c gray56",
"q  c gray57",
"w  c #929292",
"e  c gray58",
"r  c #959595",
"t  c gray59",
"y  c #979797",
"u  c #989898",
"i  c gray60",
"p  c #9A9A9A",
"a  c #9B9B9B",
"s  c gray61",
"d  c #9D9D9D",
"f  c gray62",
"g  c #9F9F9F",
"h  c gray63",
"j  c #A2A2A2",
"k  c #A4A4A4",
"l  c #A5A5A5",
"z  c gray65",
"x  c #A7A7A7",
"c  c gray66",
"v  c #A9A9A9",
"b  c #AAAAAA",
"n  c gray67",
"m  c #ACACAC",
"M  c gray68",
"N  c #AFAFAF",
"B  c gray69",
"V  c #B1B1B1",
"C  c #B2B2B2",
"Z  c gray70",
"A  c gray71",
"S  c #B6B6B6",
"D  c #B7B7B7",
"F  c gray72",
"G  c #B9B9B9",
"H  c gray73",
"J  c #BBBBBB",
"K  c #BCBCBC",
"L  c gray74",
"P  c gray",
"I  c gray75",
"U  c #C0C0C0",
"Y  c #C1C1C1",
"T  c gray76",
"R  c #C3C3C3",
"E  c gray77",
"W  c #C5C5C5",
"Q  c #C6C6C6",
"!  c gray78",
"~  c #C8C8C8",
"^  c gray79",
"/  c #CBCBCB",
"(  c gray80",
")  c #CDCDCD",
"_  c #CECECE",
"`  c gray81",
"'  c #D0D0D0",
"]  c gray82",
"[  c #D2D2D2",
"{  c LightGray",
"}  c gray83",
"|  c #D5D5D5",
" . c gray84",
".. c #D7D7D7",
"X. c #D8D8D8",
"o. c gray85",
"O. c #DADADA",
"+. c gray86",
"@. c gainsboro",
"#. c #DDDDDD",
"$. c gray87",
"%. c #DFDFDF",
"&. c gray88",
"*. c #E1E1E1",
"=. c #E2E2E2",
"-. c gray89",
";. c #E4E4E4",
":. c gray90",
">. c #E6E6E6",
",. c #E7E7E7",
"<. c gray91",
"1. c #E9E9E9",
"2. c #EAEAEA",
"3. c gray92",
"4. c #ECECEC",
"5. c gray93",
"6. c #EEEEEE",
"7. c #EFEFEF",
"8. c gray94",
"9. c #F1F1F1",
"0. c gray95",
"q. c #F3F3F3",
"w. c #F4F4F4",
"e. c gray96",
"r. c #F6F6F6",
"t. c gray97",
"y. c #F8F8F8",
"u. c #F9F9F9",
"i. c gray98",
"p. c #FBFBFB",
"a. c gray99",
"s. c #FDFDFD",
"d. c #FEFEFE",
"f. c white",
"g. c None",
/* pixels */
"g.g.g.g.g.g.g.g.g.g.g.g.g.g.< 2 1 , g.g.g.g.g.g.g.g.g.g.g.g.g.g.",
"g.g.g.g.g.g.g.g.g.g.3 q l Z J P P F N g 7 : g.g.g.g.g.g.g.g.g.g.",
"g.g.g.g.g.g.g.g.4 h H ~ ..=.1.4.4.<.%.' I N y : g.g.g.g.g.g.g.g.",
"g.g.g.g.g.g.g.t G ` >.0.u.s.d.f.f.d.a.w.1.o.T b 7 g.g.g.g.g.g.g.",
"g.g.g.g.g.< v R =.w.s.f.f.f.f.f.f.f.f.a.t.9.:.' V i & g.g.g.g.g.",
"g.g.g.g.< M ( 3.p.f.f.f.f.f.f.f.f.f.f.d.u.e.8.<. .S u $ g.g.g.g.",
"g.g.g.g.v ( 5.s.f.f.f.f.f.f.f.f.f.f.f.f.p.r.9.4.>.} V q g.g.g.g.",
"g.g.g.t R 3.s.f.f.f.f.f.f.f.f.f.f.f.f.f.a.t.0.5.<.=.) k ; g.g.g.",
"g.g.4 G =.p.f.f.f.f.f.f.f.f.f.f.f.f.f.f.s.y.q.6.<.;.O.L y # g.g.",
"g.g.h ` w.f.f.f.f.f.f.f.f.f.f.f.f.f.f.f.d.y.q.6.1.;.#.( c , g.g.",
"g.1 H >.s.f.f.f.f.f.f.f.f.f.f.f.f.f.f.f.s.y.q.6.1.;.@.[ F w O g.",
"g.q ~ 0.f.f.f.f.f.f.f.f.f.f.f.f.f.f.f.f.s.y.q.6.1.;.@.[ Y p # g.",
"g.l ..u.f.f.f.f.f.f.f.f.f.f.f.f.f.f.f.f.a.t.0.5.<.-.O.' W k ; g.",
"g.Z =.s.f.f.f.f.f.f.f.f.f.f.f.f.f.f.f.f.p.r.9.4.,.=.X._ W n 2 g.",
"< J 1.d.f.f.f.f.f.f.f.f.f.f.f.f.f.f.f.d.u.w.7.2.>.&. .( R M 6   ",
"2 P 4.f.f.f.f.f.f.f.f.f.f.f.f.f.f.f.f.p.t.0.5.<.;.#.{ ^ U M 6 . ",
"2 P 4.f.f.f.f.f.f.f.f.f.f.f.f.f.f.f.s.y.w.8.3.>.=.o.` Q L n 4 . ",
"< J 1.d.f.f.f.f.f.f.f.f.f.f.f.f.f.s.u.e.9.5.1.;.$.| / T H z 2 . ",
"g.C =.s.f.f.f.f.f.f.f.f.f.f.f.f.s.i.r.0.6.2.>.*.o.' ! L S f > g.",
"g.h | u.f.f.f.f.f.f.f.f.f.f.d.a.u.r.0.7.3.,.-.@.} / T G B r = g.",
"g.9 R 6.a.s.d.f.f.f.f.f.d.a.i.y.e.0.6.3.,.;.$. ._ W K A v 7 + g.",
"g.> Z #.e.u.i.p.a.a.p.i.u.t.e.q.8.6.2.,.;.%...' ~ I D B d 1 . g.",
"g.g.i W 1.w.e.r.r.r.r.e.w.0.9.6.4.1.>.-.%.X.' ^ Y G C c 0 * g.g.",
"g.g.: M { 4.8.8.9.9.9.8.7.5.4.2.,.:.=.#. .' ^ T H Z m a < X g.g.",
"g.g.g.8 Z o.1.3.3.4.3.3.2.<.,.:.-.%.O.} _ ~ Y H Z M h 4 # g.g.g.",
"g.g.g.g.a G ..:.,.>.>.>.:.-.=.%.+. .] ( Q U G Z M j 9 - g.g.g.g.",
"g.g.g.g.= s A ] %.*.&.%.$.+.o.| ] ) ~ R L D C m h 9 : . g.g.g.g.",
"g.g.g.g.g.% e x Y '  . .} ] _ / ! R I H S B c a 4 - . g.g.g.g.g.",
"g.g.g.g.g.g.g.> p n J E ! ! W T I J D V v d 0 < # g.g.g.g.g.g.g.",
"g.g.g.g.g.g.g.g.$ < e d z M N N m x g r 7 1 * o g.g.g.g.g.g.g.g.",
"g.g.g.g.g.g.g.g.g.g.@ $ : 4 7 7 5 2 > = + . g.g.g.g.g.g.g.g.g.g.",
"g.g.g.g.g.g.g.g.g.g.g.g.g.g.. . . . g.g.g.g.g.g.g.g.g.g.g.g.g.g."
};
